<?xml version="1.0" standalone="no"?>
<!DOCTYPE svg PUBLIC "-//W3C//DTD SVG 20010904//EN"
 "http://www.w3.org/TR/2001/REC-SVG-20010904/DTD/svg10.dtd">
<svg version="1.0" xmlns="http://www.w3.org/2000/svg"
 width="265.000000pt" height="265.000000pt" viewBox="0 0 265.000000 265.000000"
 preserveAspectRatio="xMidYMid meet">
<metadata>
Created by potrace 1.14, written by Peter Selinger 2001-2017
</metadata>
<g transform="translate(0.000000,265.000000) scale(0.100000,-0.100000)"
fill="#000000" stroke="none">
<path d="M1160 2640 c-53 -9 -93 -17 -135 -25 -126 -25 -308 -105 -441 -194
-91 -60 -233 -191 -289 -265 -17 -21 -35 -44 -41 -50 -29 -30 -118 -192 -152
-276 -65 -159 -94 -301 -97 -470 -3 -163 4 -232 40 -373 126 -489 522 -858
1035 -964 116 -24 382 -24 495 0 403 85 733 331 922 687 55 103 110 256 128
357 2 16 8 46 12 68 9 54 10 318 0 380 -62 402 -301 752 -651 958 -114 66
-292 133 -406 152 -25 4 -54 9 -65 12 -37 9 -310 11 -355 3z"/>
</g>
</svg>
